<svg width="32" height="32" viewBox="0 0 32 32" fill="none" xmlns="http://www.w3.org/2000/svg">
<g clip-path="url(#clip0_78_164)">
<path d="M1.33337 1.33337H6.66671L10.24 19.1867C10.362 19.8006 10.6959 20.352 11.1834 20.7444C11.671 21.1369 12.281 21.3454 12.9067 21.3334H25.8667C26.4924 21.3454 27.1025 21.1369 27.59 20.7444C28.0775 20.352 28.4114 19.8006 28.5334 19.1867L30.6667 8.00004H8.00004M13.3334 28C13.3334 28.7364 12.7364 29.3334 12 29.3334C11.2637 29.3334 10.6667 28.7364 10.6667 28C10.6667 27.2637 11.2637 26.6667 12 26.6667C12.7364 26.6667 13.3334 27.2637 13.3334 28ZM28 28C28 28.7364 27.4031 29.3334 26.6667 29.3334C25.9303 29.3334 25.3334 28.7364 25.3334 28C25.3334 27.2637 25.9303 26.6667 26.6667 26.6667C27.4031 26.6667 28 27.2637 28 28Z" stroke="#E5D7F4" stroke-width="4" stroke-linecap="round" stroke-linejoin="round"/>
</g>
<defs>
<clipPath id="clip0_78_164">
<rect width="32" height="32" fill="white"/>
</clipPath>
</defs>
</svg>
